<svg width="25" height="24" viewBox="0 0 25 24" fill="none" xmlns="http://www.w3.org/2000/svg">
<g id="icon/briefcase">
<path id="Vector" d="M20.6001 7H4.6001C3.49553 7 2.6001 7.89543 2.6001 9V19C2.6001 20.1046 3.49553 21 4.6001 21H20.6001C21.7047 21 22.6001 20.1046 22.6001 19V9C22.6001 7.89543 21.7047 7 20.6001 7Z" stroke="#5951E5" stroke-width="2" stroke-linecap="round" stroke-linejoin="round"/>
<path id="Vector_2" d="M16.6001 21V5C16.6001 4.46957 16.3894 3.96086 16.0143 3.58579C15.6392 3.21071 15.1305 3 14.6001 3H10.6001C10.0697 3 9.56096 3.21071 9.18588 3.58579C8.81081 3.96086 8.6001 4.46957 8.6001 5V21" stroke="#5951E5" stroke-width="2" stroke-linecap="round" stroke-linejoin="round"/>
</g>
</svg>
