<svg width="24" height="24" viewBox="0 0 24 24" fill="none" xmlns="http://www.w3.org/2000/svg">
<g id="Frame 52">
<path id="Vector" d="M17.3889 19.9997V18.4441C17.3889 17.619 17.0611 16.8277 16.4777 16.2442C15.8942 15.6608 15.1029 15.333 14.2778 15.333H9.61111C8.78599 15.333 7.99467 15.6608 7.41122 16.2442C6.82778 16.8277 6.5 17.619 6.5 18.4441V19.9997" stroke="#5951E5" stroke-width="2" stroke-linecap="round" stroke-linejoin="round"/>
<path id="Vector_2" d="M12.0115 12.2222C13.7297 12.2222 15.1226 10.8293 15.1226 9.11111C15.1226 7.39289 13.7297 6 12.0115 6C10.2933 6 8.90039 7.39289 8.90039 9.11111C8.90039 10.8293 10.2933 12.2222 12.0115 12.2222Z" stroke="#5951E5" stroke-width="2" stroke-linecap="round" stroke-linejoin="round"/>
<path id="Vector_3" d="M12 22C17.5228 22 22 17.5228 22 12C22 6.47715 17.5228 2 12 2C6.47715 2 2 6.47715 2 12C2 17.5228 6.47715 22 12 22Z" stroke="#5951E5" stroke-width="2" stroke-linecap="round" stroke-linejoin="round"/>
</g>
</svg>
