<svg width="25" height="24" viewBox="0 0 25 24" fill="none" xmlns="http://www.w3.org/2000/svg">
<g id="icon/megaphone">
<path id="Vector" d="M3.6001 11L21.6001 6V18L3.6001 14V11Z" stroke="#5951E5" stroke-width="2" stroke-linecap="round" stroke-linejoin="round"/>
<path id="Vector_2" d="M12.2003 16.8002C12.0953 17.181 11.9162 17.5374 11.6734 17.8491C11.4306 18.1607 11.1288 18.4215 10.7852 18.6165C10.4417 18.8115 10.063 18.9369 9.67099 18.9856C9.27894 19.0343 8.88115 19.0053 8.50031 18.9002C8.11948 18.7951 7.76307 18.6161 7.45143 18.3733C7.13979 18.1305 6.87902 17.8287 6.68402 17.4851C6.48902 17.1415 6.36359 16.7629 6.31492 16.3709C6.26624 15.9788 6.29526 15.581 6.40031 15.2002" stroke="#5951E5" stroke-width="2" stroke-linecap="round" stroke-linejoin="round"/>
</g>
</svg>
