<svg xmlns="http://www.w3.org/2000/svg" width="58" height="32" viewBox="0 0 58 32" fill="none">
  <rect x="6.3999" width="6.39998" height="6.39998" fill="white"/>
  <rect x="12.7998" width="6.39998" height="6.39998" fill="white"/>
  <rect x="19.2002" width="6.39998" height="6.39998" fill="url(#paint0_linear_1332_6552)"/>
  <rect x="12.7998" y="25.6" width="6.39998" height="6.39998" fill="white"/>
  <rect x="19.2002" y="25.6" width="6.39998" height="6.39998" fill="white"/>
  <rect x="6.3999" y="25.6" width="6.39998" height="6.39998" fill="white"/>
  <rect x="44.7998" width="6.39998" height="6.39998" fill="#CDD4DD"/>
  <rect x="51.2002" width="6.39998" height="6.39998" fill="#5951E5"/>
  <rect x="6.3999" y="6.39999" width="6.39998" height="6.39998" fill="#5951E5"/>
  <rect width="6.39998" height="6.39998" fill="#100E44"/>
  <rect x="12.7998" y="6.39999" width="6.39998" height="6.39998" fill="#5951E5"/>
  <rect x="19.2002" y="6.39999" width="6.39998" height="6.39998" fill="#5951E5"/>
  <rect x="25.6001" y="6.39999" width="6.39998" height="6.39998" fill="#5951E5"/>
  <rect x="32" y="6.39999" width="6.39998" height="6.39998" fill="#5951E5"/>
  <rect x="38.3999" y="6.39999" width="6.39998" height="6.39998" fill="#5951E5"/>
  <rect x="51.2002" y="6.39999" width="6.39998" height="6.39998" fill="#5951E5"/>
  <rect x="44.7998" y="12.8" width="6.39998" height="6.39998" fill="#5951E5"/>
  <rect x="51.2002" y="12.8" width="6.39998" height="6.39998" fill="#5951E5"/>
  <rect x="12.7998" y="19.2" width="6.39998" height="6.39998" fill="#5951E5"/>
  <rect x="6.3999" y="19.2" width="6.39998" height="6.39998" fill="#5951E5"/>
  <rect x="6.3999" y="19.2" width="6.39998" height="6.39998" fill="#5951E5"/>
  <rect x="38.3999" y="19.2" width="6.39998" height="6.39998" fill="#5951E5"/>
  <rect x="19.2002" y="19.2" width="6.39998" height="6.39998" fill="#5951E5"/>
  <rect x="19.2002" y="12.8" width="6.39998" height="6.39998" fill="#5951E5"/>
  <rect x="32" y="12.8" width="6.39998" height="6.39998" fill="#5951E5"/>
  <rect x="25.6001" y="12.8" width="6.39998" height="6.39998" fill="#5951E5"/>
  <rect x="25.6001" y="19.2" width="6.39998" height="6.39998" fill="#5951E5"/>
  <rect x="51.2002" y="25.6" width="6.39998" height="6.39998" fill="white"/>
  <rect x="51.2002" y="19.2" width="6.39998" height="6.39998" fill="#5951E5"/>
  <rect x="44.7998" y="19.2" width="6.39998" height="6.39998" fill="#5951E5"/>
  <rect x="32" width="6.39998" height="6.39998" fill="#CDD4DD"/>
  <rect x="25.6001" width="6.39998" height="6.39998" fill="#CDD4DD"/>
  <rect x="38.3999" width="6.39998" height="6.39998" fill="#CDD4DD"/>
  <rect x="38.3999" y="25.6" width="6.39998" height="6.39998" fill="white"/>
  <rect x="44.7998" y="25.6" width="6.39998" height="6.39998" fill="white"/>
  <rect x="32" y="25.6" width="6.39998" height="6.39998" fill="white"/>
  <rect x="25.6001" y="25.6" width="6.39998" height="6.39998" fill="url(#paint1_linear_1332_6552)"/>
  <rect x="32" y="19.2" width="6.39998" height="6.39998" fill="white"/>
  <rect x="38.3999" y="12.8" width="6.39998" height="6.39998" fill="white"/>
  <rect x="44.7998" y="6.39999" width="6.39998" height="6.39998" fill="white"/>
  <rect x="6.3999" y="12.8" width="6.39998" height="6.39998" fill="white"/>
  <rect x="12.7998" y="12.8" width="6.39998" height="6.39998" fill="white"/>
  <rect x="12.7998" y="25.6" width="6.39998" height="6.39998" fill="#CDD4DD"/>
  <rect x="19.2002" y="25.6" width="6.39998" height="6.39998" fill="white"/>
  <rect x="19.2002" y="25.6" width="6.39998" height="6.39998" fill="#CDD4DD"/>
  <rect y="6.39999" width="6.39998" height="6.39998" fill="white"/>
  <rect y="12.8" width="6.39998" height="6.39998" fill="white"/>
  <rect y="19.2" width="6.39998" height="6.39998" fill="white"/>
  <rect x="6.3999" y="25.6" width="6.39998" height="6.39998" fill="#CDD4DD"/>
  <defs>
    <linearGradient id="paint0_linear_1332_6552" x1="19.5202" y1="1.91999" x2="24.9602" y2="1.91999" gradientUnits="userSpaceOnUse">
      <stop stop-color="white"/>
      <stop offset="1" stop-color="#CDD4DD"/>
    </linearGradient>
    <linearGradient id="paint1_linear_1332_6552" x1="32.0001" y1="28.8" x2="25.6001" y2="28.8" gradientUnits="userSpaceOnUse">
      <stop stop-color="white"/>
      <stop offset="1" stop-color="#CDD4DD"/>
    </linearGradient>
  </defs>
</svg>